<svg t="1768371423772" class="icon" viewBox="0 0 1057 1024" version="1.1" xmlns="http://www.w3.org/2000/svg" p-id="7104" width="256" height="256"><path d="M1042.109935 528.780387c-4.963097 0.412903-9.950968 0.606968-15.248516 0.606968-30.744774 0-60.572903-7.20929-87.481806-20.413936 8.96-51.394065 12.766968-103.172129 11.767742-154.760258-29.171613-42.19871-62.513548-82.014968-100.153807-118.69729 16.330323-30.616774 40.468645-56.96 70.606452-75.639742l12.936258-7.997935-10.083097-11.371355c-51.947355-58.496-113.944774-103.72129-184.237419-134.408258L726.197677 0l-3.559225 14.814968c-8.381935 34.531097-25.905548 65.684645-49.961291 90.681806a800.379871 800.379871 0 0 0-144.334451-59.478709A801.081806 801.081806 0 0 0 384.231226 105.372903C360.274581 80.404645 342.792258 49.329548 334.447484 14.897548L330.859355 0.082581l-13.964387 6.069677C247.490065 36.397419 183.783226 82.849032 132.686452 140.469677l-10.112 11.396129 12.923871 7.997936c30.042839 18.605419 54.115097 44.795871 70.416516 75.243355-37.524645 36.541935-70.829419 76.230194-99.980387 118.234838-1.135484 51.567484 2.477419 103.72129 11.478709 155.829678-26.772645 13.076645-56.435613 20.207484-86.978064 20.207484-5.359484 0-10.376258-0.194065-15.248516-0.59871L0 527.628387l1.424516 15.157678c7.440516 76.709161 31.256774 149.665032 70.829419 216.869161l7.721291 13.113806 11.60258-9.843613a198.35871 198.35871 0 0 1 93.881807-43.974193 804.583226 804.583226 0 0 0 80.350968 130.873806c48.838194 17.081806 99.720258 29.832258 152.270451 37.42142 5.037419 34.754065 1.024 70.69729-12.684387 103.931871l-5.780645 14.084129 14.864516 3.274322c38.069677 8.369548 76.482065 12.634839 114.08929 12.634839l114.056259-12.634839 14.881032-3.274322-5.793032-14.108904c-13.675355-33.23871-17.688774-69.223226-12.647226-103.981419 52.339613-7.597419 103.035871-20.314839 151.692387-37.347097a805.607226 805.607226 0 0 0 80.441806-130.997677 199.242323 199.242323 0 0 1 94.340129 44.015484l11.598452 9.827096 7.688258-13.080774c39.63871-67.290839 63.454968-140.242581 70.779871-216.827871l1.424516-15.132903-14.922323 1.152zM691.571613 714.157419c-53.958194 14.674581-108.75871 22.082065-163.228903 22.082065-54.618839 0-109.349161-7.403355-163.356904-22.082065a632.794839 632.794839 0 0 1-69.912774-147.28258c-16.788645-51.683097-26.611613-105.827097-29.460645-161.585549 34.873806-43.119484 74.53729-80.891871 118.35871-112.693677a630.172903 630.172903 0 0 1 144.371613-78.497032 632.741161 632.741161 0 0 1 144.094967 78.327742c43.99071 31.971097 83.827613 70.036645 118.874839 113.424516-2.989419 55.440516-12.932129 109.274839-29.745548 160.871226a630.779871 630.779871 0 0 1-69.995355 147.435354z m-118.668387-260.120774c0 38.119226 30.893419 68.954839 68.963097 68.954839 38.05729 0 68.913548-30.827355 68.913548-68.954839 0-37.970581-30.856258-68.921806-68.913548-68.921806-38.069677 0-68.958968 30.951226-68.958968 68.921806z m-89.096258 0c0 38.119226-30.885161 68.954839-68.954839 68.954839-38.094452 0-68.892903-30.827355-68.892903-68.954839 0-37.958194 30.802581-68.909419 68.897032-68.909419 38.069677 0 68.954839 30.951226 68.954839 68.913548z" fill="#419EDA" p-id="7105"></path></svg>