<svg t="1768367477778" class="icon" viewBox="0 0 1024 1024" version="1.1" xmlns="http://www.w3.org/2000/svg" p-id="2475" width="256" height="256"><path d="M785.066667 230.4c-59.733333 0-106.666667 46.933333-106.666667 106.666667 0 14.933333 2.133333 27.733333 8.533333 38.4l-102.4 59.733333 21.333334 36.266667 104.533333-59.733334c19.2 19.2 46.933333 32 74.666667 32 59.733333 0 106.666667-46.933333 106.666666-106.666666s-46.933333-106.666667-106.666666-106.666667z m0 170.666667c-36.266667 0-64-27.733333-64-64s27.733333-64 64-64 64 27.733333 64 64-27.733333 64-64 64zM785.066667 571.733333c-27.733333 0-51.2 10.666667-70.4 27.733334l-110.933334-64-21.333333 36.266666 106.666667 61.866667c-6.4 14.933333-10.666667 29.866667-10.666667 44.8 0 59.733333 46.933333 106.666667 106.666667 106.666667s106.666667-46.933333 106.666666-106.666667-46.933333-106.666667-106.666666-106.666667z m0 170.666667c-36.266667 0-64-27.733333-64-64s27.733333-64 64-64 64 27.733333 64 64-27.733333 64-64 64z" fill="#55ABE5" p-id="2476"></path><path d="M640 507.733333c0-91.733333-70.4-168.533333-160-179.2v-46.933333c49.066667-10.666667 85.333333-53.333333 85.333333-104.533333 0-59.733333-46.933333-106.666667-106.666666-106.666667s-106.666667 46.933333-106.666667 106.666667c0 51.2 36.266667 93.866667 85.333333 104.533333v46.933333c-89.6 10.666667-160 87.466667-160 179.2s70.4 168.533333 160 179.2v78.933334c-49.066667 10.666667-85.333333 53.333333-85.333333 104.533333 0 59.733333 46.933333 106.666667 106.666667 106.666667s106.666667-46.933333 106.666666-106.666667c0-51.2-36.266667-93.866667-85.333333-104.533333v-78.933334c91.733333-10.666667 160-87.466667 160-179.2zM394.666667 174.933333c0-36.266667 27.733333-64 64-64s64 27.733333 64 64-27.733333 64-64 64-64-27.733333-64-64zM341.333333 507.733333c0-64 53.333333-117.333333 117.333334-117.333333s117.333333 53.333333 117.333333 117.333333-53.333333 117.333333-117.333333 117.333334-117.333333-53.333333-117.333334-117.333334z m181.333334 362.666667c0 36.266667-27.733333 64-64 64s-64-27.733333-64-64 27.733333-64 64-64 64 27.733333 64 64z" fill="#0171F1" p-id="2477"></path></svg>