<svg t="1768528627670" class="icon" viewBox="0 0 1024 1024" version="1.1" xmlns="http://www.w3.org/2000/svg" p-id="6498" width="256" height="256"><path d="M893.994667 678.4c0 29.866667-23.424 68.266667-48.981334 83.2l-287.274666 166.4c-10.666667 6.4-27.648 10.666667-46.805334 10.666667-19.157333 0-36.181333-4.266667-48.938666-10.666667l-287.274667-166.4c-23.424-14.933333-46.805333-53.333333-46.805333-83.2V345.6c0-29.866667 23.381333-68.266667 48.938666-83.2l287.274667-166.4c10.666667-6.4 27.648-10.666667 46.805333-10.666667 19.157333 0 36.181333 4.266667 48.938667 10.666667l287.274667 166.4c25.557333 14.933333 46.848 53.333333 46.848 83.2v332.8z" fill="#31BF30" p-id="6499"></path><path d="M745.002667 695.466667c0 17.066667-12.757333 29.866667-29.781334 29.866666h-78.72c-2.133333 0-6.4-2.133333-8.533333-4.266666-2.133333-2.133333-2.133333-6.4-2.133333-8.533334 8.533333-27.733333 14.933333-57.6 21.333333-89.6 16.981333-85.333333 25.514667-183.466667 4.224-213.333333-4.266667-6.4-10.666667-8.533333-14.933333-10.666667h-4.224c-44.672 0-82.986667 164.266667-89.386667 198.4-21.290667 6.4-46.805333 6.4-68.096 0-6.4-34.133333-46.805333-206.933333-93.610667-198.4-4.266667 0-10.666667 2.133333-14.933333 10.666667-19.114667 29.866667-12.757333 128 4.266667 213.333333 6.4 32 12.8 61.866667 21.290666 89.6 0 2.133333 0 6.4-2.133333 8.533334-2.133333 2.133333-4.266667 4.266667-8.533333 4.266666H302.421333a29.141333 29.141333 0 0 1-29.781333-29.866666V328.533333c0-17.066667 12.8-29.866667 29.781333-29.866666h80.896c12.757333 0 25.514667 6.4 36.138667 14.933333 40.448 40.533333 83.029333 110.933333 83.029333 110.933333 2.133333 4.266667 6.4 4.266667 8.533334 4.266667 4.224 0 6.357333-2.133333 8.490666-4.266667 0 0 42.538667-70.4 82.986667-110.933333 10.666667-10.666667 23.381333-14.933333 36.181333-14.933333h76.586667c17.066667 0 29.781333 12.8 29.781333 29.866666v366.933334z" fill="#FFFFFF" p-id="6500"></path><path d="M564.138667 682.666667c-12.8 0-21.290667 8.533333-21.290667 21.333333s8.533333 21.333333 21.290667 21.333333c12.8 0 21.290667-8.533333 21.290666-21.333333s-8.533333-21.333333-21.333333-21.333333zM457.728 682.666667c-12.8 0-21.290667 8.533333-21.290667 21.333333s8.533333 21.333333 21.333334 21.333333c12.714667 0 21.248-8.533333 21.248-21.333333s-8.533333-21.333333-21.290667-21.333333z" fill="#FFFFFF" p-id="6501"></path></svg>