<svg t="1768273103306" class="icon" viewBox="0 0 1024 1024" version="1.1" xmlns="http://www.w3.org/2000/svg" p-id="9146" width="256" height="256"><path d="M986.064 614.272c-3.6-23.344-23.208-38.632-46.016-39.664-8.256-0.376-16.64 0.488-24.872 1.536-9.944 1.264-19.768 3.504-29.688 4.984-6.856 1.024-13.808 1.496-20.656 2.2l-0.168-0.888c12.784-24.144 26.104-48.024 38.2-72.512 9.272-18.784 17.208-38.248 25.408-57.552 13.568-31.984 24.408-64.96 33.384-98.472 8.6-32.088 15.96-64.528 18.272-97.816 0.928-13.296 1.568-26.648 1.496-39.96-0.064-10.616-1.208-21.248-2.272-31.832-1.2-12.128-4.864-23.624-9.936-34.688-6.688-14.576-17.056-26.536-27.968-37.896-8.736-9.096-18.344-17.384-27.872-25.664-13.584-11.816-28.856-21.248-44.72-29.624a257.44 257.44 0 0 0-56.72-22c-11.944-3.048-24.16-5.312-36.256-7.728-4.352-0.88-8.712-2.696-13.064-2.696H680.688c-2.96 0-5.896 1.528-8.88 1.864-19.616 2.184-39 5.88-57.824 11.712-7.04 2.184-13.472 0.808-20.16 0.192-5.128-0.472-10.168-1.848-15.296-2.104-19.536-0.976-39.096-2.408-58.624-2.2-18.712 0.192-37.232 3.272-55.344 8.416-15.16 4.304-29.992 9.56-43.576 17.528-5.816 3.408-10.424 2.768-16.44 1.032-20.216-5.832-40.576-11.312-61.112-15.912-12.8-2.864-25.96-4.288-39.032-5.656a457.712 457.712 0 0 0-37.744-2.352c-12.304-0.264-24.696-0.256-36.944 0.832a241.28 241.28 0 0 0-57.264 12.104 190.504 190.504 0 0 0-56.688 30.92c-17.336 13.72-31.24 30.472-42.424 49.6-11.784 20.184-19.864 41.792-24.888 64.488-2.72 12.296-4.44 24.936-6.304 37.424-0.584 3.888 5.856 7.776-2.144 11.648v54.352c8 3.616 1.664 7.224 2.128 10.848 1.112 8.712 2.096 17.496 3.568 26.144 2.328 13.688 5.088 27.336 7.904 40.936a2598.88 2598.88 0 0 0 12.368 56.888c3.168 13.76 6.776 27.44 10.552 41.048 5.768 20.784 11.448 41.608 17.968 62.16 6.056 19.096 12.992 37.92 19.872 56.744 9.528 26.04 20.936 51.24 34.616 75.392 11.832 20.912 25.352 40.496 43.488 56.608 11.952 10.616 25.256 18.776 40.744 22.856 12.168 3.2 24.536 3.584 36.992 1.032a87.832 87.832 0 0 0 38.592-18.488c1.304-1.072 2.736-1.888 4.28 0.08 5.88 7.448 13.752 12.416 21.984 16.712 22.216 11.584 46.424 15.056 71.016 16.472 5.952 0.344 11.968-0.512 17.968-0.68 11.688-0.32 23.048-2.6 34.224-5.832 5.856-1.696 11.576-3.848 17.536-5.856 0.312 6.344 0.712 12.456 0.896 18.568l0.832 33.328c0.152 5.072 0.352 10.16 0.824 15.208 1.208 13.016 2.392 26.04 3.944 39.016 1.08 8.944 2.2 17.96 4.304 26.688a305.408 305.408 0 0 0 17.264 51.424 110.48 110.48 0 0 0 31.2 41.48c17.76 14.688 38.576 20.952 61.056 22.112 9.296 0.488 18.856 0.032 28.008-1.632a392.08 392.08 0 0 0 43.096-10.2c28.728-8.672 53.56-23.648 72.112-47.848 10.56-13.792 19.232-28.712 24.8-45.184 4.592-13.608 8.92-27.352 12.36-41.28 2.72-10.976 4.064-22.296 5.72-33.504 1.096-7.416 1.752-14.904 2.44-22.376 1.12-12.136 2.264-24.264 3.072-36.424 0.56-8.464 0.536-16.968 0.872-25.448 0.104-2.584 0.52-5.152 0.76-7.728 0.224-2.384 1.424-3.208 3.856-3.168 8.568 0.128 17.152 0.352 25.696-0.032 9.576-0.432 19.24-0.84 28.664-2.424a452.336 452.336 0 0 0 39.92-8.536c15.544-4.064 29.8-11.344 43.52-19.64 15.984-9.656 30.552-20.984 42.376-35.576 10.28-12.728 15.152-27.44 12.672-43.504z m-27.296 7.856c-0.528 7.32-3.88 13.592-8.744 18.952-22.952 25.304-51.744 40.656-84.68 48.216-12.512 2.864-25.424 4.352-38.232 5.536a256.744 256.744 0 0 1-32.912 0.776c-8.048-0.304-16.032-2.144-24.256-3.328-0.824 7.52-1.608 15.352-2.56 23.168l-3.832 29.96c-1.16 9.496-2.064 19.024-3.256 28.512-1.168 9.208-2.624 18.384-3.848 27.592-1.144 8.576-1.984 17.192-3.256 25.752-1.96 13.12-3.832 26.272-6.392 39.288-3.072 15.56-7.784 30.632-15.472 44.664-9.376 17.128-22.672 30.176-39.592 39.84-17.44 9.968-36.504 15.152-55.832 19.488-13.68 3.072-27.776 3.576-41.632 2.328-24.032-2.176-44.544-12.456-60.048-31.088-14.8-17.784-24.816-38.168-28.4-61.24a504.816 504.816 0 0 1-3.928-33.088 864.536 864.536 0 0 1-2.392-36.96 2001.624 2001.624 0 0 1-1.576-46.968c-0.424-19.248-0.56-38.496-0.832-57.744l-0.048-0.736c-9.792 5.872-19.416 12.304-29.624 17.6a99.136 99.136 0 0 1-38.384 10.824c-10.544 0.8-21.224 1.528-31.72 0.688-17.208-1.384-34.4-4.08-49.808-12.552-6.248-3.44-12.768-7.624-17.072-13.12-10.32-13.168-5.376-29.808 10.184-37.816 10.752-5.544 22.488-7.856 34.144-10.552a354.944 354.944 0 0 0 30.088-8.232c9.776-3.2 15.944-11.128 22.032-18.904l9.648-12.408c-4.024-0.424-7.816-0.856-11.608-1.208-11.512-1.088-22.496-4.256-33-8.912-8.992-3.976-9.128-4.408-15.72 2.744-11.008 11.952-21.712 24.184-32.496 36.336-7.936 8.936-15.824 17.928-23.72 26.888-7.824 8.864-15.152 18.232-23.576 26.48-12.512 12.248-27.592 19.616-45.584 18.784-11.544-0.528-22.112-4.576-31.616-11.192-19.616-13.664-32.832-32.776-44.864-52.848-15.416-25.72-27.248-53.12-37.376-81.272-7.008-19.456-14.048-38.928-20.168-58.664-6.648-21.448-12.48-43.168-18.216-64.88a1258.984 1258.984 0 0 1-11.856-49.456 1728.936 1728.936 0 0 1-11.712-56.632c-2.384-12.792-3.768-25.768-5.696-38.648-2.6-17.36-3.08-34.88-2.136-52.312 0.84-15.704 3.096-31.368 5.336-46.968 3.104-21.584 10.216-41.952 20.448-61.184 6.264-11.784 14.04-22.496 23.032-32.448 14.76-16.336 32.624-28.144 52.496-37.008 13.888-6.192 28.56-9.92 43.512-12.832 22.192-4.32 44.584-4.152 66.984-3.688 9.792 0.2 19.544 1.984 29.328 2.952 21.064 2.096 41.712 6.528 62.096 12 14.856 3.984 29.408 9.144 44.144 13.624 1.48 0.448 3.648 0.408 4.856-0.384 19.968-13.032 41.792-21.632 65-26.552 8.808-1.864 17.896-2.68 26.904-3.256 10.952-0.696 21.992-1.336 32.92-0.704 13.136 0.752 26.208 2.688 39.264 4.48 6.336 0.864 12.52 3.064 18.872 3.664 3.04 0.288 6.264-1.936 9.48-2.68 16.392-3.784 32.712-8 49.248-10.992 12.312-2.224 24.888-3.272 37.408-3.992 13.96-0.8 28.024-1.384 41.976-0.712a293.28 293.28 0 0 1 52.44 7.384c21.416 4.984 41.96 12.224 61.488 22.272 14.592 7.504 28.464 16.208 40.952 26.912 8.184 7.024 16.56 13.96 23.952 21.784 9.12 9.648 18.424 19.304 24.144 31.664 4.304 9.32 7.376 18.968 8.224 29.176 1.056 12.688 2.336 25.424 2.216 38.128-0.112 12.152-1.768 24.296-2.944 36.416-2.672 27.632-8.68 54.664-15.976 81.336a935.776 935.776 0 0 1-20.712 65.36c-7.032 19.848-15.144 39.336-23.344 58.744a640.56 640.56 0 0 1-19.664 42.424c-13.416 26.288-27.368 52.304-43.504 77.064-2.784 4.28-5.424 8.664-8.144 13.032 7.04 4.752 15.016 6.424 23.048 7.288 7.64 0.832 15.432 1.328 23.064 0.76 12.216-0.904 24.392-2.648 36.536-4.352 12.032-1.68 23.824-5.104 36.176-4.2 12.336 0.896 21.16 10.272 20.32 21.832z m-176.104-26.824c-5.24-6.768-10.584-13.456-15.712-20.304-8.048-10.752-13.832-22.76-19.64-34.824-5.504-11.432-12.256-22.256-18.056-33.56-10.12-19.72-20.424-39.376-29.744-59.48-11.72-25.256-20.96-51.408-23.872-79.384-1.232-11.84-1.544-23.664 0.848-35.392 3.832-18.728 13.616-33.376 30.064-43.424 15.256-9.32 32.256-12.328 49.672-13.272 10.808-0.584 21.664-0.104 32.88-0.104l-0.376-1.896c-6.976-14.584-13.496-29.416-21.128-43.656-10.768-20.096-24.544-38.216-39.888-55.016-11.368-12.44-23.68-23.984-37.168-34.184-13.264-10.04-27.24-19.008-42.152-26.344-17.784-8.744-36.304-15.504-55.736-19.816-18.672-4.144-37.464-6.68-56.616-6.888-16.336-0.176-32.568 0.56-48.48 4.248-24.016 5.56-45.984 15.448-65.096 31.464a169.144 169.144 0 0 0-28.136 30.16c-9.568 13.144-17.288 27.336-23.888 42.216-9.056 20.416-15.272 41.664-19.52 63.504-2.128 10.888-3.792 21.872-5.488 32.848-0.592 3.84-0.64 7.768-0.984 12.168 2.952-1.536 5.08-2.72 7.256-3.776l7.08-3.176c23.944-10.952 48.752-18 75.416-17.192 11.328 0.344 22.168 2.584 32.24 7.544 19.32 9.528 30.624 25.728 35.536 46.232 3.392 14.152 5.712 28.584 7.968 42.976 1.768 11.24 3.576 22.6 3.784 33.936 0.296 16.568-0.544 33.168-1.448 49.728a139.088 139.088 0 0 1-8.64 41.168c-8.96 23.944-18.944 47.496-28.272 71.304-3.08 7.864-5.448 16.008-8.36 24.656 4.496 0 8.144-0.032 11.792 0.016 1.424 0.024 2.88 0.064 4.256 0.392 10.72 2.528 20.016 7.384 27.64 15.632 10.168 10.976 15.504 23.784 15.776 38.608 0.152 8.216-0.712 16.456-0.672 24.672 0.168 38.288 0.456 76.576 0.776 114.856 0.056 6.256 0.368 12.52 0.816 18.768 0.936 13.08 1.88 26.168 3.16 39.216 0.896 9.256 2.144 18.496 3.608 27.688 2.072 13.024 8 24.616 14.728 35.696 5.792 9.528 13.32 17.624 23.24 23.208 16.856 9.488 35.008 10.28 53.304 6.784 12.36-2.36 24.496-6.152 36.496-10.064a81.024 81.024 0 0 0 31.496-18.832c8.408-8.152 14.376-18.088 18.4-29.056 7.808-21.272 10.24-43.672 13.472-65.896 1.208-8.32 2.256-16.664 3.36-25 1.256-9.488 2.528-18.968 3.744-28.448 0.896-7.064 1.712-14.144 2.576-21.208 1.232-10.144 2.536-20.28 3.712-30.432 0.904-7.848 1.672-15.728 2.472-23.592 1.032-10.048 2.144-20.096 3.032-30.16 0.688-7.64 0.408-15.416 1.76-22.912 2.488-13.744 8.984-25.44 21.168-33 5.096-3.16 10.848-5.24 16.504-7.912l-0.96-1.488z m-460.776-56.416a140.208 140.208 0 0 1-10.832-44.976c-1.024-14.6 0.712-29.144 2.208-43.68 1.456-14.08 2.664-28.224 3.088-42.368 0.704-23.248-0.864-46.464-1.976-69.696-0.672-13.832 0.936-27.832 2.168-41.696 1.112-12.488 2.496-25.008 4.856-37.312 3.96-20.648 9.216-41 16.688-60.728 7.096-18.704 15.248-36.92 26.76-53.32 7.888-11.248 16.84-21.76 25.44-32.752l-2.552-0.904c-27.984-8.888-56.424-15.832-85.672-18.864-13.832-1.432-27.712-2.272-41.584-3.096-4.256-0.256-8.576 0.32-12.848 0.728-10.576 1.008-21.28 1.408-31.688 3.392-17.712 3.368-34.704 9.032-50.44 18.256-14.128 8.28-25.992 18.984-35.928 31.824-10.976 14.176-18.36 30.208-23.664 47.304-6.264 20.168-9.248 40.92-10.056 61.864-0.704 18.36-1.056 36.824 2.112 55.112 2.36 13.616 3.936 27.376 6.536 40.936 3.544 18.488 7.344 36.936 11.736 55.232 6.28 26.192 12.552 52.424 19.992 78.296 7.12 24.792 15.152 49.36 23.856 73.632 7.12 19.808 15.352 39.248 24.024 58.432 5.648 12.496 12.488 24.52 19.656 36.224 7.624 12.424 16.296 24.216 28.064 33.232 14.848 11.384 26.344 13.152 41.432 0.664 6.464-5.352 11.928-11.96 17.552-18.256 8.936-10 17.56-20.272 26.456-30.304 11.328-12.784 22.8-25.432 34.184-38.152 2.408-2.688 4.72-5.456 7.064-8.176l-3.872-3.4a141.56 141.56 0 0 1-32.76-47.448z m429.504-380.552a491.904 491.904 0 0 1 26.472 33.632c16 22.472 28.784 46.736 38.2 72.696 4.168 11.44 7.496 22.992 6.008 35.512-1.032 8.768-0.944 17.664-1.72 26.48-0.648 7.336-1.808 14.632-2.76 21.944-1.424 11.024-3.488 22.016-4.104 33.088-0.584 10.536 0.024 21.184 0.688 31.744 0.672 10.728 2.12 21.408 3.104 32.12 1.112 12.144 2.608 24.288 2.952 36.456 0.28 9.992-0.608 20.048-1.48 30.024-1.04 12.016-4.088 23.648-8.632 34.808-3.192 7.856-7.008 15.472-10.616 23.336l1.448 1.536 2.2 1.704 2.216-3.968a748.968 748.968 0 0 0 49.776-91.944 1490.664 1490.664 0 0 0 26.296-62.128c12.992-32.512 23.272-65.936 31.224-100.024 3.568-15.304 6.296-30.84 8.72-46.376 1.888-12.144 3.464-24.432 3.816-36.688 0.376-13-0.344-26.104-1.544-39.072-0.896-9.792-3.312-19.648-9.448-27.608-9.864-12.816-20.512-25.072-33.608-34.768-11.024-8.168-22.008-16.544-33.84-23.416-18.76-10.88-39.064-18.128-60.28-23.064-20.704-4.824-41.68-6.904-62.792-7.344-12.448-0.264-24.952 1.072-37.376 2.24-11.256 1.056-22.44 2.856-33.776 4.344 12.16 6.84 24.152 12.92 35.464 20.088 23.784 15.064 45.096 33.192 63.392 54.648zM442.392 580.112c7.688-24.584 18.16-48.056 28.304-71.672 8.224-19.152 12.72-39.328 14.216-60.048 0.744-10.216 0.536-20.56 0.032-30.808a357.024 357.024 0 0 0-3.136-34.072c-2.128-14.408-4.552-28.824-7.96-42.968-3.696-15.304-13.016-25.96-28.984-29.888-9.728-2.392-19.392-2.296-29.224-0.744-24.016 3.784-46 12.632-66.48 25.592-4.12 2.608-6.384 4.712-5.672 10.624 1.504 12.52 1.832 25.24 1.776 37.88-0.08 17.888-0.84 35.776-1.52 53.656-0.224 5.824-1.064 11.616-1.688 17.416-0.96 8.88-2.808 17.752-2.752 26.616 0.056 9.136 0.992 18.488 3.208 27.336 7.04 28.056 21.952 51.016 46.392 67.216 15.032 9.96 31.664 14.984 49.92 15.936 1.24-4.192 2.344-8.152 3.568-12.072z m-28.688-240.696c-3.216-6.752-1.376-12.344 6.08-14.936 1.816-0.64 3.688-1.32 5.576-1.504 2.592-0.256 5.232-0.064 7.856-0.064 9.456 0.048 18.552 1.368 26.36 7.384 5.008 3.856 6.352 8.976 3.112 14.232-4.6 7.456-11.616 11.2-20.232 11.92-13.576 1.128-23.104-5.2-28.752-17.032z m376.32-2.464c1.088-8.992 1.96-18.008 3.072-27 0.448-3.616-1.456-4.592-4.488-4.68-9.536-0.264-19.072-0.6-28.608-0.776-10.752-0.192-21.216 1.536-31.168 5.624-11.04 4.544-19.448 11.824-22.88 23.84a72.336 72.336 0 0 0-2.344 27.28 160.88 160.88 0 0 0 9.544 41.408c6.672 17.768 13.656 35.528 22 52.552 11.304 23.048 24.096 45.36 36.104 68.056 3.208 6.056 5.904 12.376 9.248 19.448a110.264 110.264 0 0 0 10.808-44.976c0.328-12.88-0.704-25.816-1.456-38.704-0.472-7.888-1.584-15.728-2.352-23.6-1.072-10.968-2.696-21.928-2.944-32.92-0.248-11.176 0.544-22.416 1.504-33.576 0.904-10.704 2.672-21.32 3.96-31.976z m-21.512-8.656c-3.544 9.784-11.12 15.304-20.944 16.928-9.16 1.504-17.184-1.88-23.152-9.184-4.248-5.2-2.624-11.36 3.744-14.872 7.312-4.048 15.352-5.072 24.832-5.688 2.576 0.472 6.456 0.864 10.144 1.92 5.352 1.512 7.328 5.536 5.376 10.896z m-283.376 301.28c-5.24-4.28-12.168-4.528-17.152 0.168-6.184 5.84-11.624 12.52-17.064 19.104-6.28 7.608-12.168 15.52-20.272 21.416-11.792 8.568-25.536 12.12-39.352 15.48-10.984 2.672-22.016 5.152-33.032 7.72l-0.136 1.424c3.272 1.512 6.44 3.4 9.848 4.48 16.8 5.32 33.888 7.968 51.64 6.464 12.816-1.088 25.024-3.88 36.592-9.368 15.92-7.544 28.168-19.496 38.584-33.4 1.744-2.32 2.536-5.752 2.744-8.744 0.712-10.568-4.656-18.424-12.4-24.744z m414.008 4.208c-13.52 1.448-27.056 2.984-40.616 3.76-6.544 0.376-13.184-0.872-19.792-1.408-11.08-0.896-21.896-3.36-31.264-9.28-5.424-3.416-9.928-3.8-15.688-1.864-8.224 2.768-14.936 6.976-16.92 15.888-1.352 6.024-1.84 12.264-2.384 18.432-0.104 1.088 1.256 3.088 2.296 3.36 6.344 1.672 12.72 3.648 19.208 4.232 7.968 0.72 16.08 0.488 24.104 0.088 8.664-0.432 17.384-0.992 25.92-2.432 20.12-3.376 39.584-8.88 56.872-20.288 6.232-4.12 12.408-8.328 18.6-12.496l-0.512-0.88c-6.608 0.984-13.184 2.184-19.824 2.888z" fill="#336791" p-id="9147"></path></svg>