<svg width="150" height="150" viewBox="0 0 24 24" fill="none" xmlns="http://www.w3.org/2000/svg">
  <!-- 显示器外框 -->
  <rect x="2" y="3" width="20" height="14" rx="1" stroke="#0078D4" stroke-width="1.5" fill="none"/>
  
  <!-- 屏幕 -->
  <rect x="3.5" y="4.5" width="17" height="11" fill="#E3F2FD"/>
  
  <!-- Windows 标志 -->
  <path d="M10 8 L10 11 L7 11 L7 8 Z" fill="#0078D4"/>
  <path d="M10.5 8 L10.5 11 L13.5 11 L13.5 8 Z" fill="#0078D4"/>
  <path d="M10 11.5 L10 14.5 L7 14.5 L7 11.5 Z" fill="#0078D4"/>
  <path d="M10.5 11.5 L10.5 14.5 L13.5 14.5 L13.5 11.5 Z" fill="#0078D4"/>
  
  <!-- 远程连接箭头 -->
  <path d="M15 9 L17 9 M16 8 L17 9 L16 10" stroke="#0078D4" stroke-width="1.2" stroke-linecap="round"/>
  
  <!-- 底座 -->
  <path d="M10 17 L14 17 M12 17 L12 19 M9 19 L15 19" stroke="#0078D4" stroke-width="1.5" stroke-linecap="round"/>
  
  <!-- RDP 标识 -->
  <circle cx="19" cy="5" r="2.5" fill="#0078D4" opacity="0.2"/>
  <text x="19" y="6.5" text-anchor="middle" font-size="3" font-weight="bold" fill="#0078D4">R</text>
</svg>
