<svg t="1768453445773" class="icon" viewBox="0 0 1024 1024" version="1.1" xmlns="http://www.w3.org/2000/svg" p-id="21286" width="256" height="256"><path d="M74.808564 766.537143A49.249524 49.249524 0 0 0 24.388754 816.90819v122.489905A49.249524 49.249524 0 0 0 74.808564 989.866667h864.646095a49.249524 49.249524 0 0 0 50.41981-50.41981v-129.706667c0-21.601524-21.601524-43.25181-50.41981-43.251809H74.808564z" fill="#029CFF" p-id="21287"></path><path d="M161.263421 917.796571c-21.601524 0-35.986286-14.384762-35.986286-35.986285 0-21.650286 14.384762-36.08381 35.986286-36.08381h552.71619c21.650286 0 36.08381 14.433524 36.08381 36.08381 0 21.601524-14.433524 35.986286-36.08381 35.986285H161.263421zM852.999802 917.796571c-21.650286 0-36.08381-14.384762-36.08381-35.986285 0-21.650286 14.433524-36.08381 36.08381-36.08381 21.601524 0 35.986286 14.433524 35.986286 36.08381 0 21.601524-14.384762 35.986286-35.986286 35.986285z" fill="#FFFFFF" p-id="21288"></path><path d="M939.454659 24.380952H74.808564A49.249524 49.249524 0 0 0 24.388754 74.800762V636.830476a49.249524 49.249524 0 0 0 50.41981 50.41981h864.646095A49.249524 49.249524 0 0 0 989.874469 636.830476V74.800762A49.249524 49.249524 0 0 0 939.454659 24.380952z" fill="#029CFF" p-id="21289"></path><path d="M852.999802 456.704h-100.937143c-21.552762 0-43.203048-14.433524-57.587809-36.08381l-108.105143-194.511238-100.839619 324.266667c-7.216762 28.769524-28.818286 43.203048-50.468572 43.203048h-14.384762c-21.601524 0-43.25181-7.216762-50.419809-28.769524L283.753326 420.62019H161.263421c-21.601524 0-35.986286-14.433524-35.986286-36.035047s14.384762-36.035048 35.986286-36.035048h144.14019c14.384762 0 28.769524 7.216762 35.986286 14.433524l86.503619 136.874667 108.056381-324.217905c0-21.601524 14.433524-43.25181 43.25181-43.25181 28.769524-7.168 50.41981 7.216762 64.853333 36.08381l115.273143 208.896h93.622857c21.650286 0 36.08381 14.433524 36.08381 36.083809 0 21.552762-14.433524 43.203048-36.08381 43.203048z" fill="#FFFFFF" p-id="21290"></path></svg>