<svg t="1768495042621" class="icon" viewBox="0 0 1129 1024" version="1.1" xmlns="http://www.w3.org/2000/svg" p-id="4363" width="256" height="256"><path d="M1112.006536 232.424664c0-47.312932-39.478318-85.621146-86.53688-85.621145h-390.458878c-24.775697 0-47.16031-10.530943-62.727791-27.573774l-0.101749-0.203497a50.772373 50.772373 0 0 1-3.306818-3.815559L498.922504 34.015592A85.315901 85.315901 0 0 0 434.871986 5.017343H90.708558C43.497373 5.017343 6.511887 43.274682 6.511887 90.587615v836.828415c0 47.312932 37.138108 85.570271 84.196671 85.570272h934.761098c47.16031 0 86.486006-38.257339 86.486006-85.570272V232.424664z m-200.749282 560.124072c0 58.301743-47.312932 105.767297-105.512926 105.767297a105.563801 105.563801 0 0 1-103.477962-85.366775L455.323383 757.191222a137.360127 137.360127 0 0 1-118.180583 67.306462 137.665371 137.665371 0 0 1-137.512749-137.868868c0-76.209433 61.557686-137.919742 137.512749-137.919742 26.658039 0 51.688107 7.631118 72.749992 20.909264l208.482148-175.05785a105.563801 105.563801 0 0 1 101.392123-135.17254c58.301743 0 105.512927 47.312932 105.512927 105.818172a105.563801 105.563801 0 0 1-152.113622 94.931109l-208.329525 175.108725c4.833041 12.108041 8.038111 24.928319 9.25909 38.511709l246.841235 55.758037c19.179544-25.945802 50.009261-42.785136 84.756285-42.785136 58.352617 0 105.512927 47.312932 105.512927 105.818172z" fill="#0599E9" p-id="4364"></path></svg>