<svg t="1768289687227" class="icon" viewBox="0 0 1024 1024" version="1.1" xmlns="http://www.w3.org/2000/svg" p-id="46778" width="256" height="256"><path d="M0 170.666667v682.666666q0 35.328 25.002667 60.330667T85.333333 938.666667h853.333334q35.328 0 60.330666-25.002667T1024 853.333333V170.666667q0-35.328-25.002667-60.330667T938.666667 85.333333H85.333333q-35.328 0-60.330666 25.002667T0 170.666667z m938.666667 0v128H85.333333V170.666667h853.333334zM85.333333 853.333333V384h853.333334v469.333333H85.333333z m512-300.672a42.666667 42.666667 0 0 1-4.522666 19.072l-85.333334 170.666667a42.666667 42.666667 0 1 1-76.288-38.186667l85.333334-170.666666a42.666667 42.666667 0 0 1 80.810666 19.114666z m94.165334 90.496l-60.330667-60.330666a42.666667 42.666667 0 0 1 60.330667-60.330667l90.496 90.453333a42.666667 42.666667 0 0 1 0 60.373334l-90.453334 90.496a42.666667 42.666667 0 0 1-60.373333-60.330667l60.330667-60.330667z m-298.666667-120.661333a42.666667 42.666667 0 0 0-60.330667 0l-90.496 90.453333a42.666667 42.666667 0 0 0 0 60.373334l90.453334 90.496a42.666667 42.666667 0 1 0 60.373333-60.330667l-60.330667-60.330667 60.330667-60.330666a42.666667 42.666667 0 0 0 0-60.330667z" fill="#234DCE" p-id="46779"></path></svg>