<svg t="1768463821735" class="icon" viewBox="0 0 1024 1024" version="1.1" xmlns="http://www.w3.org/2000/svg" p-id="30336" width="256" height="256"><path d="M175.274667 0h673.450666A175.274667 175.274667 0 0 1 1024 175.274667v673.450666A175.274667 175.274667 0 0 1 848.725333 1024H175.274667A175.274667 175.274667 0 0 1 0 848.725333V175.274667A175.274667 175.274667 0 0 1 175.274667 0z" fill="#008CFB" p-id="30337"></path><path d="M762.794667 171.818667a158.805333 158.805333 0 0 1 158.805333 156.16v152.789333h-62.464V330.624c0-52.650667-42.282667-95.445333-94.72-96.298667h-1.621333c-52.650667 0-95.445333 42.24-96.298667 94.72v151.722667h-62.506667V330.624a158.805333 158.805333 0 0 1 156.16-158.762667h2.645334z m-156.202667 520.704a158.805333 158.805333 0 0 1 156.16-158.805334h152.789333v62.464h-150.144c-52.650667 0-95.445333 42.24-96.298666 94.72v1.621334c0 52.650667 42.24 95.445333 94.72 96.298666h151.722666v62.506667h-150.144a158.805333 158.805333 0 0 1-158.805333-156.16v-2.645333z m-11.093333-520.704l-188.842667 632.32a65.066667 65.066667 0 0 1-124.416 1.066666l-0.298667-1.024-188.842666-632.32h66.986666L343.466667 785.749333a0.853333 0.853333 0 0 0 1.621333 0.128v-0.128l183.381333-613.973333h67.029334z" fill="#FFFFFF" p-id="30338"></path></svg>