<svg t="1768289348182" class="icon" viewBox="0 0 1024 1024" version="1.1" xmlns="http://www.w3.org/2000/svg" p-id="27041" width="256" height="256"><path d="M810.65 0A213.35 213.35 0 0 1 1024 213.35V563.2l-512-8.55V1024H213.35A213.35 213.35 0 0 1 0 810.65v-597.3A213.35 213.35 0 0 1 213.35 0h597.3z m-12.544 614.4l10.752 52.838c13.21 3.533 25.907 8.756 37.734 15.616l44.954-29.85 42.496 42.497-29.696 45.005c6.912 11.878 12.134 24.576 15.667 37.888l52.787 10.752v60.108l-52.838 10.752a153.6 153.6 0 0 1-15.668 37.888l29.901 44.954-42.496 42.496-45.056-29.798c-11.878 6.86-24.576 12.134-37.785 15.616L798.106 1024h-60.11l-10.751-52.838a156.058 156.058 0 0 1-37.786-15.616l-45.056 29.85-42.547-42.6 29.85-44.902a156.467 156.467 0 0 1-15.668-37.888L563.2 849.203v-60.109l52.838-10.752a153.485 153.485 0 0 1 15.719-37.888l-29.85-44.953 42.599-42.496 44.953 29.696a157.344 157.344 0 0 1 37.786-15.616l10.752-52.736h60.109zM768 750.95a68.25 68.25 0 1 0-0.154 136.5 68.25 68.25 0 0 0 0.154-136.5z m-298.7-196.3h-256v172.544l256 35.788V554.65z m0-293.632l-256 35.788V512h256V261.018z m341.298-47.668L512 255.078V512h298.65V213.35z" fill="#53627C" p-id="27042"></path></svg>