<svg t="1768273521537" class="icon" viewBox="0 0 1024 1024" version="1.1" xmlns="http://www.w3.org/2000/svg" p-id="11435" width="256" height="256"><path d="M632.618667 897.066667a15.189333 15.189333 0 0 1 15.232 15.232v34.474666a15.189333 15.189333 0 0 1-15.232 15.232h-68.906667a15.189333 15.189333 0 0 1-15.232-15.232v-34.474666a15.189333 15.189333 0 0 1 15.232-15.232h68.906667z m-172.330667 0a15.189333 15.189333 0 0 1 15.232 15.232v34.474666a15.189333 15.189333 0 0 1-15.232 15.232H391.381333a15.189333 15.189333 0 0 1-15.232-15.232v-34.474666a15.189333 15.189333 0 0 1 15.232-15.232h68.906667z m103.424-585.813334a15.189333 15.189333 0 0 1 15.232 15.189334v184.448l137.472-126.72a15.274667 15.274667 0 0 1 10.325333-4.053334h50.858667a15.018667 15.018667 0 0 1 14.208 9.685334 15.061333 15.061333 0 0 1-3.84 16.725333l-130.005333 119.765333 138.965333 169.557334a15.189333 15.189333 0 0 1-11.776 24.917333h-44.544a15.189333 15.189333 0 0 1-11.776-5.546667l-118.656-144.853333-31.232 28.8v106.368a15.189333 15.189333 0 0 1-15.232 15.232h-34.474667a15.189333 15.189333 0 0 1-15.232-15.232V326.442667a15.189333 15.189333 0 0 1 15.232-15.232h34.474667zM425.813333 380.16a15.189333 15.189333 0 0 1 15.232 15.232v63.701333a15.36 15.36 0 0 1-3.712 9.941334l-160.554666 186.794666h149.034666a15.189333 15.189333 0 0 1 15.232 15.232v34.474667a15.189333 15.189333 0 0 1-15.232 15.232H223.402667a15.189333 15.189333 0 0 1-15.232-15.232v-63.701333c0-3.669333 1.28-7.168 3.669333-9.941334l160.554667-186.837333H223.402667a15.189333 15.189333 0 0 1-15.232-15.189333v-34.474667a15.189333 15.189333 0 0 1 15.232-15.232H425.813333z" fill="#1296db" p-id="11436"></path><path d="M942.762667 69.973333a15.189333 15.189333 0 0 1 15.232 15.274667V946.773333a15.189333 15.189333 0 0 1-15.232 15.232H736a15.189333 15.189333 0 0 1-15.232-15.232v-34.474666a15.189333 15.189333 0 0 1 15.232-15.232h157.056V134.912H130.986667v762.154667H288a15.189333 15.189333 0 0 1 15.232 15.232v34.474666a15.189333 15.189333 0 0 1-15.232 15.232H81.237333a15.189333 15.189333 0 0 1-15.232-15.232V85.248a15.189333 15.189333 0 0 1 15.232-15.232h861.525334z" fill="#1296db" p-id="11437"></path></svg>